<svg id="Capa_1" enable-background="new 0 0 512 512" height="512" viewBox="0 0 512 512" width="512" xmlns="http://www.w3.org/2000/svg"><g><path d="m285.2 301-71.9 71.9c-2.1 13.1-8.1 25.6-18.2 35.7-10.1 10.1-22.6 16.1-35.7 18.2l-71.9 71.9c55 25 122.1 14.9 167.3-30.4 45.3-45.3 55.4-112.3 30.4-167.3z"/><path d="m173.9 338.1c-6.8-6.8-15.7-10.2-24.7-10.2-8.9 0-17.9 3.4-24.7 10.2-13.6 13.6-13.6 35.7 0 49.3s35.7 13.6 49.3 0c13.7-13.6 13.7-35.7.1-49.3z"/><path d="m103.4 408.6c-5.6-5.6-10-12-13.1-18.8l-61.3 61.3c4.4 6 9.3 11.7 14.7 17.1s11.1 10.3 17.1 14.7l61.3-61.3c-6.8-3.1-13.1-7.4-18.7-13z"/><path d="m13.4 424.3 71.9-71.9c2.1-13 8.1-25.6 18.1-35.6s22.6-16.1 35.7-18.1l71.9-71.9c-55-25-122.1-14.9-167.3 30.4-45.2 45.2-55.3 112.2-30.3 167.1z"/><path d="m445.9 227.3 11.9-44 18.3 18.3 21.2-21.2-29.4-29.4 6.4-20.2 16.5 16.5 21.2-21.2-27.6-27.6 12.4-39.5-59-59-109.9 109.9z"/><path d="m309.7 129.9h40v104.9h-40z" transform="matrix(.707 -.707 .707 .707 -32.404 286.508)"/><path d="m257.2 180.6-46.2 46.2c9.3 4.2 18.3 9.4 26.7 15.7l-61.4 61.4c6.8 3.1 13.2 7.5 18.8 13.1s9.9 11.9 13.1 18.7l61.4-61.3c6.2 8.5 11.5 17.4 15.7 26.7l46.2-46.2z"/></g></svg>